<?xml version="1.0" encoding="UTF-8" standalone="no"?>
<!-- Created with Inkscape (http://www.inkscape.org/) -->

<svg
   version="1.1"
   id="svg1"
   width="212.96001"
   height="695.06665"
   viewBox="0 0 212.96001 695.06665"
   sodipodi:docname="vd_logo_noir.eps"
   xmlns:inkscape="http://www.inkscape.org/namespaces/inkscape"
   xmlns:sodipodi="http://sodipodi.sourceforge.net/DTD/sodipodi-0.dtd"
   xmlns="http://www.w3.org/2000/svg"
   xmlns:svg="http://www.w3.org/2000/svg">
  <defs
     id="defs1" />
  <sodipodi:namedview
     id="namedview1"
     pagecolor="#ffffff"
     bordercolor="#000000"
     borderopacity="0.25"
     inkscape:showpageshadow="2"
     inkscape:pageopacity="0.0"
     inkscape:pagecheckerboard="0"
     inkscape:deskcolor="#d1d1d1">
    <inkscape:page
       x="0"
       y="0"
       inkscape:label="1"
       id="page1"
       width="212.96001"
       height="695.06665"
       margin="0"
       bleed="0" />
  </sodipodi:namedview>
  <g
     id="g1"
     inkscape:groupmode="layer"
     inkscape:label="1">
    <g
       id="group-R5">
      <path
         id="path2"
         d="m 479.883,1975.74 c 0,-61.56 -31.707,-107.02 -87.012,-124.74 -21.601,-6.97 -49.551,-10.36 -85.531,-10.36 -35.949,0 -64.934,3.47 -86.262,10.36 -55.277,17.72 -86.992,63.18 -86.992,124.74 0,47.28 21.062,87.67 56.332,108.08 3.695,2.22 7.648,3.21 12.777,3.21 11.25,0 20.086,-8.82 20.086,-20.07 0,-8.1 -3.976,-14.87 -11.89,-20.14 -23.434,-16.68 -34.411,-39.3 -34.411,-71.08 0,-41.37 20.071,-69.52 57.954,-81.5 18.515,-6.15 39.468,-8.65 72.406,-8.65 32.449,0 53.18,2.5 71.609,8.63 37.981,12 58,40.15 58,81.52 0,31.8 -10.926,54.42 -34.449,71.16 -7.797,5.13 -11.824,11.92 -11.824,20.06 0,11.25 8.847,20.07 20.117,20.07 5.129,0 9.109,-0.99 12.828,-3.25 35.199,-20.37 56.262,-60.76 56.262,-108.04"
         style="fill:#181817;fill-opacity:1;fill-rule:nonzero;stroke:none"
         transform="matrix(0.13333333,0,0,-0.13333333,0,695.06667)" />
      <path
         id="path3"
         d="m 320.609,2251.34 c 0,-61.71 17.825,-88.09 59.539,-88.09 47.512,0 57.485,41.62 57.485,76.56 0,55.2 -26.195,89.48 -68.352,89.48 h -48.332 z m 159.286,-17.66 c 0,-69.69 -39.161,-114.7 -99.747,-114.7 -64.75,0 -100.418,45.07 -100.418,126.94 v 83.06 l -23.433,0.31 c -56.809,0 -79.988,-23.37 -79.988,-80.64 0,-28.54 10.293,-56.06 19.921,-72.27 2.879,-4.37 4.575,-9.84 4.575,-14.85 0,-12.23 -8.524,-20.78 -20.758,-20.78 -6.547,0 -13.024,3.2 -17.797,8.8 -17.687,23.28 -28.156,61.03 -28.156,101.13 0,82.91 37.961,121.5 119.48,121.5 H 384.93 c 18.175,0 24.312,2.07 33.023,6.42 l 24.438,12.88 c 2.996,1.54 7.687,3.18 11.961,3.18 12.632,0 21.425,-9.39 21.425,-22.81 0,-8.94 -4.254,-15.59 -13.386,-20.94 l -22.477,-13.6 c 27.988,-26.34 39.981,-57.58 39.981,-103.63"
         style="fill:#181817;fill-opacity:1;fill-rule:nonzero;stroke:none"
         transform="matrix(0.13333333,0,0,-0.13333333,0,695.06667)" />
      <path
         id="path4"
         d="m 475.777,2685.6 c 0,-13.64 -8.996,-22.14 -23.472,-22.14 H 270.582 c -62.977,0 -93.609,-26.56 -93.609,-81.33 0,-49.89 35.687,-84.72 86.797,-84.72 h 188.535 c 14.476,0 23.472,-8.47 23.472,-22.15 0,-13.62 -8.996,-22.11 -23.472,-22.11 H 161.684 c -14.516,0 -23.532,8.49 -23.532,22.11 0,13.68 9.016,22.15 23.532,22.15 h 11.589 c -25.668,20.33 -39.199,52.21 -39.199,92.89 0,73.53 47.739,117.45 127.656,117.45 h 190.575 c 14.476,0 23.472,-8.51 23.472,-22.15"
         style="fill:#181817;fill-opacity:1;fill-rule:nonzero;stroke:none"
         transform="matrix(0.13333333,0,0,-0.13333333,0,695.06667)" />
      <path
         id="path5"
         d="m 475.113,2892.51 v -8.86 c 0,-62.44 -25.472,-86.77 -90.847,-86.77 H 181.422 l -0.332,-26.91 c 0,-13.01 -7.871,-21.42 -20.11,-21.42 -12.203,0 -20.093,8.41 -20.093,21.42 v 26.56 l -83.3167,0.35 c -14.5273,0 -23.5625,8.49 -23.5625,22.11 0,13.65 9.0352,22.14 23.5625,22.14 h 82.9927 l 0.324,52.04 c 0,13.03 7.89,21.46 20.093,21.46 12.239,0 20.11,-8.43 20.11,-21.46 v -51.75 l 201.82,-0.29 c 39.16,0 49.285,10.56 49.285,51.38 0,13.64 8.637,22.79 21.485,22.79 12.816,0 21.433,-9.15 21.433,-22.79"
         style="fill:#181817;fill-opacity:1;fill-rule:nonzero;stroke:none"
         transform="matrix(0.13333333,0,0,-0.13333333,0,695.06667)" />
      <path
         id="path6"
         d="m 176.98,3078.96 c 0,-39.94 21.165,-69.91 58,-82.18 18.704,-6.23 38.79,-8.65 71.7,-8.65 33.363,0 53.617,2.42 72.261,8.65 36.883,12.27 58.008,42.24 58.008,82.18 0,41 -20.586,70.42 -57.992,82.87 -18.758,6.24 -39.019,8.68 -72.277,8.68 -32.813,0 -52.918,-2.44 -71.7,-8.68 -37.402,-12.45 -58,-41.87 -58,-82.87 m 302.903,0 c 0,-61.07 -31.707,-106.53 -86.973,-124.72 -25.16,-7.86 -50.137,-11.06 -86.23,-11.06 -35.692,0 -60.45,3.2 -85.563,11.04 -55.324,18.19 -87.031,63.65 -87.031,124.74 0,61.5 31.707,107.2 87.012,125.42 25.257,7.87 50.047,11.09 85.582,11.09 35.976,0 60.933,-3.22 86.172,-11.07 55.324,-18.24 87.031,-63.94 87.031,-125.44"
         style="fill:#181817;fill-opacity:1;fill-rule:nonzero;stroke:none"
         transform="matrix(0.13333333,0,0,-0.13333333,0,695.06667)" />
      <path
         id="path7"
         d="m 475.777,3509.76 c 0,-13.64 -8.996,-22.12 -23.472,-22.12 H 270.582 c -62.977,0 -93.609,-26.62 -93.609,-81.35 0,-49.87 35.687,-84.72 86.797,-84.72 h 188.535 c 14.476,0 23.472,-8.49 23.472,-22.14 0,-13.64 -8.996,-22.11 -23.472,-22.11 H 161.684 c -14.516,0 -23.532,8.47 -23.532,22.11 0,13.65 9.016,22.14 23.532,22.14 h 11.589 c -25.668,20.33 -39.199,52.22 -39.199,92.9 0,73.54 47.739,117.42 127.656,117.42 h 190.575 c 14.476,0 23.472,-8.49 23.472,-22.13"
         style="fill:#181817;fill-opacity:1;fill-rule:nonzero;stroke:none"
         transform="matrix(0.13333333,0,0,-0.13333333,0,695.06667)" />
      <path
         id="path8"
         d="m 176.98,3843.44 c 0,-39.24 19.903,-67.48 55.993,-79.48 19.218,-6.24 39.871,-8.66 73.707,-8.66 34.699,0 54.836,2.34 74.336,8.66 36.089,12 55.933,40.24 55.933,79.48 0,40.44 -18.625,68.17 -53.89,80.15 -17.028,5.21 -43.454,7.96 -76.379,7.96 -32.051,0 -58.989,-2.83 -75.836,-8 -35.199,-11.94 -53.864,-39.67 -53.864,-80.11 m 302.903,-6.13 c 0,-56.49 -29.453,-97.38 -82.895,-115.22 -27.582,-8.45 -52.898,-11.74 -90.308,-11.74 -36.528,0 -62.489,3.39 -89.621,11.72 -53.539,17.86 -82.973,58.75 -82.973,115.24 0,43.86 13.004,74.83 39.656,94.24 H 23.5313 C 9.00391,3931.55 0,3940.04 0,3953.7 c 0,13.64 9.00391,22.1 23.5313,22.1 H 452.305 c 14.488,0 23.48,-8.46 23.48,-22.1 0,-13.66 -8.992,-22.15 -23.48,-22.15 h -12.11 c 26.672,-19.41 39.688,-50.4 39.688,-94.24"
         style="fill:#181817;fill-opacity:1;fill-rule:nonzero;stroke:none"
         transform="matrix(0.13333333,0,0,-0.13333333,0,695.06667)" />
      <path
         id="path9"
         d="m 175.617,4171.41 c 0,-41.27 20.817,-70.69 58.68,-82.85 12.906,-4.1 26.832,-5.93 45.113,-5.93 l 0.301,177.95 c -18.582,0.31 -32.508,-1.53 -45.414,-5.62 -37.863,-12.18 -58.68,-41.83 -58.68,-83.55 m 304.278,4.12 c 0,-64.51 -30.332,-108.61 -87.676,-127.47 -22.5,-7.46 -46.489,-10.38 -85.551,-10.38 -38.359,0 -62.359,2.92 -85.559,10.38 -55.328,17.97 -87.035,62.94 -87.035,123.35 0,60.86 31.707,106.09 87.016,124.05 21.297,7.07 46.359,10.39 78.758,10.39 12.234,0 20.761,-8.55 20.761,-20.78 v -202.13 c 27.532,-0.31 40.438,1.21 55.649,6.29 39.715,13.22 60.699,43.78 60.699,88.31 0,35.41 -10.652,60.85 -35.629,85.12 -5.191,5.23 -7.93,10.86 -7.93,16.3 0,11.47 8.352,20.11 19.422,20.11 5.614,0 10.508,-1.67 14.606,-4.93 33.804,-26.75 52.469,-68.86 52.469,-118.61"
         style="fill:#181817;fill-opacity:1;fill-rule:nonzero;stroke:none"
         transform="matrix(0.13333333,0,0,-0.13333333,0,695.06667)" />
      <path
         id="path10"
         d="M 1521,2162.51 718.047,1853.85 c -11.707,-3.94 -19.563,-5.87 -29.289,-5.87 -25.414,0 -50.809,17.58 -50.809,52.74 0,27.33 17.582,42.96 39.055,50.82 l 734.576,281.29 v 1.95 l -734.576,275.49 c -21.473,7.78 -39.055,23.43 -39.055,50.76 0,35.18 25.395,52.76 50.809,52.76 9.726,0 17.582,-1.93 29.289,-5.85 L 1521,2299.28 c 48.84,-17.6 64.47,-35.18 64.47,-68.4 0,-33.21 -15.63,-50.81 -64.47,-68.37"
         style="fill:#181817;fill-opacity:1;fill-rule:nonzero;stroke:none"
         transform="matrix(0.13333333,0,0,-0.13333333,0,695.06667)" />
      <path
         id="path11"
         d="m 1290.49,3265.51 h -138.73 c -7.79,0 -11.73,-3.9 -11.73,-11.71 v -222.71 c 0,-185.61 56.64,-263.76 181.68,-263.76 115.29,0 175.82,80.1 175.82,230.54 0,160.19 -78.13,267.64 -207.04,267.64 m 244.19,166.06 c 29.29,0 50.79,-21.5 50.79,-54.71 0,-21.5 -9.78,-37.11 -33.23,-50.79 l -74.22,-44.91 v -3.92 c 76.21,-68.39 119.17,-150.44 119.17,-296.97 0,-179.71 -97.67,-318.42 -275.48,-318.42 -183.61,0 -277.4,128.92 -277.4,353.58 v 238.37 c 0,7.81 -3.9,11.71 -11.71,11.71 h -66.44 c -154.336,0 -240.308,-58.61 -240.308,-242.22 0,-80.14 27.343,-160.21 58.628,-212.97 7.797,-11.73 11.7,-25.43 11.7,-37.11 0,-29.33 -19.52,-48.82 -48.856,-48.82 -15.601,0 -31.23,7.8 -42.957,21.46 -42.976,56.66 -78.144,156.27 -78.144,283.25 0,230.58 103.539,338.01 332.117,338.01 h 377.06 c 52.76,0 72.31,5.87 99.61,19.53 l 70.36,37.11 c 7.81,3.92 19.51,7.82 29.31,7.82"
         style="fill:#181817;fill-opacity:1;fill-rule:nonzero;stroke:none"
         transform="matrix(0.13333333,0,0,-0.13333333,0,695.06667)" />
      <path
         id="path12"
         d="m 1528.82,4197.3 h -64.48 v -1.95 c 84.02,-52.72 132.85,-140.64 132.85,-271.55 0,-205.16 -128.95,-322.33 -355.54,-322.33 H 694.609 c -37.101,0 -56.66,21.48 -56.66,52.72 0,31.28 19.559,52.76 56.66,52.76 h 521.601 c 185.63,0 279.39,78.14 279.39,240.29 0,140.7 -99.63,250.06 -259.82,250.06 H 694.609 c -37.101,0 -56.66,21.5 -56.66,52.76 0,31.3 19.559,52.78 56.66,52.78 h 834.211 c 37.08,0 56.65,-21.48 56.65,-52.78 0,-31.26 -19.57,-52.76 -56.65,-52.76"
         style="fill:#181817;fill-opacity:1;fill-rule:nonzero;stroke:none"
         transform="matrix(0.13333333,0,0,-0.13333333,0,695.06667)" />
      <path
         id="path13"
         d="m 1333.45,5084.05 c -50.79,15.61 -128.95,23.42 -222.7,23.42 -91.83,0 -170.012,-7.81 -220.781,-23.42 -109.399,-37.12 -162.149,-123.09 -162.149,-240.3 0,-119.18 62.516,-203.2 168.024,-238.36 60.562,-19.53 123.076,-25.38 214.906,-25.38 93.75,0 156.25,5.85 216.83,25.38 105.5,35.16 168.02,119.18 168.02,238.36 0,117.21 -52.72,203.18 -162.15,240.3 m 195.37,23.42 h -68.38 v -1.93 c 80.09,-44.92 136.75,-126.99 136.75,-279.37 0,-158.26 -84.01,-271.55 -230.51,-320.4 -76.19,-23.46 -148.5,-33.2 -255.93,-33.2 -105.51,0 -177.816,9.74 -253.988,33.2 -146.524,48.85 -230.539,162.14 -230.539,320.4 0,152.38 56.64,234.45 136.757,279.37 v 1.93 H 298.023 c -37.16,0 -56.664,21.5 -56.664,52.78 0,31.24 19.504,52.72 56.664,52.72 H 1528.82 c 37.08,0 56.65,-21.48 56.65,-52.72 0,-31.28 -19.57,-52.78 -56.65,-52.78"
         style="fill:#181817;fill-opacity:1;fill-rule:nonzero;stroke:none"
         transform="matrix(0.13333333,0,0,-0.13333333,0,695.06667)" />
      <path
         id="path14"
         d="m 442.441,1536.06 c 0,6.59 3.957,10.56 9.672,10.56 5.715,0 9.895,-3.97 9.895,-10.56 v -120.45 c 0,-0.88 0.437,-1.32 1.316,-1.32 h 64.848 c 5.93,0 9.668,-3.96 9.668,-9.02 0,-5.27 -3.738,-9.23 -9.668,-9.23 h -76.277 c -5.938,0 -9.454,3.74 -9.454,9.68 v 130.34"
         style="fill:#181817;fill-opacity:1;fill-rule:nonzero;stroke:none"
         transform="matrix(0.13333333,0,0,-0.13333333,0,695.06667)" />
      <path
         id="path15"
         d="m 573.867,1536.06 c 0,6.59 3.957,10.56 9.895,10.56 5.715,0 9.672,-3.97 9.672,-10.56 V 1405.5 c 0,-6.6 -3.957,-10.55 -9.672,-10.55 -5.938,0 -9.895,3.95 -9.895,10.55 v 130.56"
         style="fill:#181817;fill-opacity:1;fill-rule:nonzero;stroke:none"
         transform="matrix(0.13333333,0,0,-0.13333333,0,695.06667)" />
      <path
         id="path16"
         d="m 664.418,1413.85 h 34.949 c 17.805,0 27.477,9.67 27.477,24.61 0,14.73 -9.672,24.62 -27.477,24.62 h -34.949 c -0.879,0 -1.316,-0.43 -1.316,-1.31 v -46.61 c 0,-0.87 0.437,-1.31 1.316,-1.31 z m 33.852,67.04 c 16.488,0 26.156,9.45 26.156,23.31 0,14.28 -9.668,23.51 -26.156,23.51 h -33.852 c -0.879,0 -1.316,-0.44 -1.316,-1.32 v -44.18 c 0,-0.88 0.437,-1.32 1.316,-1.32 z m -54.735,55.83 c 0,5.28 3.297,8.79 8.793,8.79 h 46.383 c 29.891,0 45.062,-15.38 45.062,-39.13 0,-17.36 -7.914,-28.13 -20.226,-32.74 v -0.45 c 10.769,-2.85 22.859,-14.94 22.859,-34.51 0,-28.13 -18.023,-42.64 -48.355,-42.64 h -45.723 c -5.496,0 -8.793,3.3 -8.793,8.79 v 131.89"
         style="fill:#181817;fill-opacity:1;fill-rule:nonzero;stroke:none"
         transform="matrix(0.13333333,0,0,-0.13333333,0,695.06667)" />
      <path
         id="path17"
         d="m 789.469,1536.72 c 0,5.28 3.297,8.79 8.793,8.79 h 76.937 c 5.93,0 9.668,-3.95 9.668,-9 0,-5.29 -3.738,-9.24 -9.668,-9.24 h -64.847 c -0.879,0 -1.321,-0.44 -1.321,-1.32 v -43.96 c 0,-0.88 0.442,-1.32 1.321,-1.32 h 54.078 c 5.929,0 9.668,-3.96 9.668,-9.01 0,-5.28 -3.739,-9.24 -9.668,-9.24 h -54.078 c -0.879,0 -1.321,-0.43 -1.321,-1.31 v -45.5 c 0,-0.88 0.442,-1.32 1.321,-1.32 h 64.847 c 5.93,0 9.668,-3.96 9.668,-9.02 0,-5.27 -3.738,-9.23 -9.668,-9.23 h -76.937 c -5.496,0 -8.793,3.51 -8.793,8.79 v 131.89"
         style="fill:#181817;fill-opacity:1;fill-rule:nonzero;stroke:none"
         transform="matrix(0.13333333,0,0,-0.13333333,0,695.06667)" />
      <path
         id="path18"
         d="m 1009.92,1502.43 c 0,15.61 -10.334,24.84 -27.701,24.84 h -34.946 c -0.875,0 -1.324,-0.44 -1.324,-1.32 v -47.04 c 0,-0.88 0.449,-1.32 1.324,-1.32 h 34.946 c 17.367,0 27.701,9.24 27.701,24.84 z m -83.533,-96.93 v 131.22 c 0,5.28 3.297,8.79 8.793,8.79 h 46.828 c 29.012,0 47.252,-16.92 47.252,-43.08 0,-20 -10.55,-34.51 -28.36,-40.22 l 26.82,-52.76 c 0.88,-1.76 1.32,-3.3 1.32,-5.27 0,-4.84 -3.52,-9.23 -9.45,-9.23 -3.95,0 -7.03,1.97 -9.45,6.15 l -29.46,58.25 h -33.407 c -0.875,0 -1.324,-0.44 -1.324,-1.32 v -52.53 c 0,-6.6 -3.953,-10.55 -9.668,-10.55 -5.941,0 -9.894,3.95 -9.894,10.55"
         style="fill:#181817;fill-opacity:1;fill-rule:nonzero;stroke:none"
         transform="matrix(0.13333333,0,0,-0.13333333,0,695.06667)" />
      <path
         id="path19"
         d="m 1160.25,1545.51 c 5.93,0 9.67,-3.95 9.67,-9.23 0,-5.06 -3.74,-9.01 -9.67,-9.01 h -34.51 c -0.88,0 -1.32,-0.44 -1.32,-1.32 V 1405.5 c 0,-6.6 -3.96,-10.55 -9.67,-10.55 -5.94,0 -9.9,3.95 -9.9,10.55 v 120.45 c 0,0.88 -0.43,1.32 -1.3,1.32 h -34.52 c -5.93,0 -9.68,3.95 -9.68,9.01 0,5.28 3.75,9.23 9.68,9.23 h 91.22"
         style="fill:#181817;fill-opacity:1;fill-rule:nonzero;stroke:none"
         transform="matrix(0.13333333,0,0,-0.13333333,0,695.06667)" />
      <path
         id="path20"
         d="m 1260.68,1591.68 c 1.54,1.75 3.3,2.86 5.94,2.86 4.18,0 7.48,-3.09 7.48,-7.26 0,-2.2 -0.88,-4.18 -2.21,-5.72 l -15.16,-16.7 c -1.99,-2.21 -3.96,-3.3 -6.59,-3.3 -3.75,0 -7.05,3.08 -7.05,7.03 0,2.2 0.88,4.18 2.42,5.95 z m -55.39,-54.96 c 0,5.28 3.3,8.79 8.79,8.79 h 76.93 c 5.94,0 9.68,-3.95 9.68,-9 0,-5.29 -3.74,-9.24 -9.68,-9.24 h -64.83 c -0.88,0 -1.33,-0.44 -1.33,-1.32 v -43.96 c 0,-0.88 0.45,-1.32 1.33,-1.32 h 54.06 c 5.94,0 9.68,-3.96 9.68,-9.01 0,-5.28 -3.74,-9.24 -9.68,-9.24 h -54.06 c -0.88,0 -1.33,-0.43 -1.33,-1.31 v -45.5 c 0,-0.88 0.45,-1.32 1.33,-1.32 h 64.83 c 5.94,0 9.68,-3.96 9.68,-9.02 0,-5.27 -3.74,-9.23 -9.68,-9.23 h -76.93 c -5.49,0 -8.79,3.51 -8.79,8.79 v 131.89"
         style="fill:#181817;fill-opacity:1;fill-rule:nonzero;stroke:none"
         transform="matrix(0.13333333,0,0,-0.13333333,0,695.06667)" />
      <path
         id="path21"
         d="m 789.453,1347.19 c 0,3.6 2.25,6 5.996,6 h 53.582 c 4.039,0 6.586,-3.26 6.586,-6.71 0,-3.6 -2.547,-6.87 -6.586,-6.87 H 804.82 c -0.593,0 -0.898,-0.29 -0.898,-0.89 v -26 c 0,-0.6 0.305,-0.9 0.898,-0.9 h 36.856 c 4.058,0 6.597,-3.27 6.597,-6.71 0,-3.6 -2.539,-6.86 -6.597,-6.86 H 804.82 c -0.593,0 -0.898,-0.29 -0.898,-0.9 v -27.05 c 0,-0.6 0.305,-0.9 0.898,-0.9 h 44.211 c 4.039,0 6.586,-3.27 6.586,-6.71 0,-3.6 -2.547,-6.86 -6.586,-6.86 h -53.582 c -3.746,0 -5.996,2.4 -5.996,5.99 v 85.37"
         style="fill:#181817;fill-opacity:1;fill-rule:nonzero;stroke:none"
         transform="matrix(0.13333333,0,0,-0.13333333,0,695.06667)" />
      <path
         id="path22"
         d="m 948.504,1353.19 c 4.051,0 7.16,-3.26 7.16,-6.86 0,-3.45 -3.109,-6.72 -7.16,-6.72 h -23.531 c -0.594,0 -0.899,-0.29 -0.899,-0.89 v -75.88 c 0,-4.49 -3.258,-7.76 -7.16,-7.76 -4.039,0 -7.297,3.27 -7.297,7.76 v 75.88 c 0,0.6 -0.301,0.89 -0.898,0.89 h -23.531 c -4.047,0 -7.161,3.27 -7.161,6.72 0,3.6 3.114,6.86 7.161,6.86 h 63.316"
         style="fill:#181817;fill-opacity:1;fill-rule:nonzero;stroke:none"
         transform="matrix(0.13333333,0,0,-0.13333333,0,695.06667)" />
      <path
         id="path23"
         d="m 603.324,1168.96 c 0,16.26 -10.769,26.37 -29.234,26.37 h -33.41 c -0.879,0 -1.321,-0.43 -1.321,-1.31 v -50.12 c 0,-0.89 0.442,-1.32 1.321,-1.32 h 33.41 c 18.465,0 29.234,10.11 29.234,26.38 z m -83.527,35.83 c 0,5.28 3.297,8.79 8.793,8.79 h 46.16 c 29.891,0 47.922,-18.02 47.922,-44.62 0,-26.6 -18.031,-44.62 -47.922,-44.62 h -34.07 c -0.879,0 -1.321,-0.45 -1.321,-1.33 v -49.45 c 0,-6.59 -3.953,-10.55 -9.671,-10.55 -5.934,0 -9.891,3.96 -9.891,10.55 v 131.23"
         style="fill:#181817;fill-opacity:1;fill-rule:nonzero;stroke:none"
         transform="matrix(0.13333333,0,0,-0.13333333,0,695.06667)" />
      <path
         id="path24"
         d="m 721.348,1116.87 -23.743,67.92 h -0.656 l -24.179,-67.92 z m -82.871,-40.45 45.941,127.28 c 2.418,7.02 6.156,10.98 12.75,10.98 6.594,0 10.77,-3.96 13.191,-10.98 l 45.282,-127.28 c 0.437,-1.33 0.879,-2.86 0.879,-4.4 0,-5.49 -4.176,-9.01 -9.235,-9.01 -4.394,0 -7.914,2.41 -9.449,7.03 l -10.113,28.8 h -61.328 l -10.114,-28.8 c -1.539,-4.62 -5.054,-7.03 -9.449,-7.03 -5.059,0 -9.234,3.52 -9.234,9.01 0,1.54 0.437,3.07 0.879,4.4"
         style="fill:#181817;fill-opacity:1;fill-rule:nonzero;stroke:none"
         transform="matrix(0.13333333,0,0,-0.13333333,0,695.06667)" />
      <path
         id="path25"
         d="m 864.43,1213.58 c 5.929,0 9.675,-3.95 9.675,-9.23 0,-5.06 -3.746,-9.02 -9.675,-9.02 h -34.508 c -0.879,0 -1.317,-0.43 -1.317,-1.31 v -120.46 c 0,-6.59 -3.96,-10.55 -9.679,-10.55 -5.93,0 -9.895,3.96 -9.895,10.55 v 120.46 c 0,0.88 -0.426,1.31 -1.304,1.31 h -34.516 c -5.938,0 -9.676,3.96 -9.676,9.02 0,5.28 3.738,9.23 9.676,9.23 h 91.219"
         style="fill:#181817;fill-opacity:1;fill-rule:nonzero;stroke:none"
         transform="matrix(0.13333333,0,0,-0.13333333,0,695.06667)" />
      <path
         id="path26"
         d="m 992.992,1170.5 c 0,15.61 -10.32,24.83 -27.687,24.83 h -34.957 c -0.875,0 -1.317,-0.43 -1.317,-1.31 v -47.05 c 0,-0.87 0.442,-1.31 1.317,-1.31 h 34.957 c 17.367,0 27.687,9.24 27.687,24.84 z m -83.531,-96.94 v 131.23 c 0,5.28 3.297,8.79 8.801,8.79 h 46.816 c 29.016,0 47.272,-16.93 47.272,-43.08 0,-20 -10.56,-34.51 -28.373,-40.23 l 26.833,-52.76 c 0.87,-1.75 1.3,-3.3 1.3,-5.27 0,-4.84 -3.51,-9.23 -9.44,-9.23 -3.963,0 -7.033,1.98 -9.455,6.15 l -29.453,58.25 h -33.414 c -0.875,0 -1.317,-0.44 -1.317,-1.31 v -52.54 c 0,-6.59 -3.961,-10.55 -9.676,-10.55 -5.933,0 -9.894,3.96 -9.894,10.55"
         style="fill:#181817;fill-opacity:1;fill-rule:nonzero;stroke:none"
         transform="matrix(0.13333333,0,0,-0.13333333,0,695.06667)" />
      <path
         id="path27"
         d="m 1058.26,1204.12 c 0,6.6 3.96,10.56 9.89,10.56 5.72,0 9.68,-3.96 9.68,-10.56 v -130.56 c 0,-6.59 -3.96,-10.55 -9.68,-10.55 -5.93,0 -9.89,3.96 -9.89,10.55 v 130.56"
         style="fill:#181817;fill-opacity:1;fill-rule:nonzero;stroke:none"
         transform="matrix(0.13333333,0,0,-0.13333333,0,695.06667)" />
      <path
         id="path28"
         d="m 1127.93,1204.79 c 0,5.28 3.29,8.79 8.79,8.79 h 76.93 c 5.93,0 9.68,-3.95 9.68,-9.01 0,-5.28 -3.75,-9.24 -9.68,-9.24 h -64.84 c -0.88,0 -1.32,-0.43 -1.32,-1.31 v -43.96 c 0,-0.88 0.44,-1.33 1.32,-1.33 h 54.07 c 5.93,0 9.68,-3.95 9.68,-9.01 0,-5.27 -3.75,-9.23 -9.68,-9.23 h -54.07 c -0.88,0 -1.32,-0.43 -1.32,-1.32 v -45.49 c 0,-0.89 0.44,-1.33 1.32,-1.33 h 64.84 c 5.93,0 9.68,-3.96 9.68,-9.01 0,-5.27 -3.75,-9.23 -9.68,-9.23 h -76.93 c -5.5,0 -8.79,3.51 -8.79,8.79 v 131.89"
         style="fill:#181817;fill-opacity:1;fill-rule:nonzero;stroke:none"
         transform="matrix(0.13333333,0,0,-0.13333333,0,695.06667)" />
      <path
         id="path29"
         d="m 1545.45,1504.74 c -2.04,-88.73 -8.06,-222.13 -25.09,-353.81 -6.66,-53.45 -16.51,-106.33 -30.04,-161.149 H 249.082 c -13.539,54.809 -23.387,107.699 -30.039,161.149 -17.031,131.68 -23.055,265.08 -25.094,353.81 -1.469,62.62 -1.254,112.47 -0.918,139.9 H 1546.31 c 0.16,-12.2 0.27,-29.44 0.27,-49.64 -0.04,-25.25 -0.32,-55.49 -1.13,-90.26 z m -73.25,-581.092 -20.36,-60.828 -79.01,79.008 h 104.8 c -1.72,-6.066 -3.63,-12.117 -5.43,-18.18 z m -60.19,-164.718 -182.9,182.898 h 101.1 l 110.94,-110.937 -0.6,-1.789 c -8.81,-23.571 -18.48,-46.922 -28.54,-70.172 z m -46.33,-97.391 -280.29,280.289 h 101.1 L 1399.05,729.27 c -10.45,-22.79 -21.72,-45.329 -33.37,-67.731 z m -51.59,-92.121 -372.406,372.41 H 1042.77 L 1351.01,633.59 c -0.32,-0.578 -0.61,-1.18 -0.94,-1.77 -11.42,-20.851 -23.44,-41.64 -35.98,-62.402 z M 467.914,941.828 1114.21,295.531 c -15.29,-17.883 -31.07,-35.812 -47.31,-53.793 l -700.087,700.09 z m 143.719,0 L 1178.96,374.5 c -14.56,-18.602 -29.64,-37.23 -45.21,-55.891 L 510.531,941.828 Z m 143.719,0 484.958,-484.969 C 1226.58,437.441 1212.3,418.02 1197.5,398.57 L 654.25,941.828 Z m 143.714,0 398.794,-398.789 c -12.79,-20.359 -26.17,-40.699 -40.07,-61.027 L 797.969,941.828 Z m 103.544,-769.09 c -1.79,-1.879 -3.399,-3.59 -5.075,-5.359 L 280.238,884.68 267.195,923.648 c -1.8,6.063 -3.715,12.114 -5.429,18.18 h 62.429 L 1046.56,219.461 c -14.32,-15.531 -28.9,-31.09 -43.95,-46.723 z M 927.203,93.9883 389.254,631.949 c -33.508,61.129 -62.359,123.961 -86.738,187.84 L 976.781,145.52 c -0.472,-0.5 -0.957,-1 -1.394,-1.469 C 957.523,125.18 941.484,108.27 927.203,93.9883 Z m -34.93,-32.0391 c -7.019,-5.5312 -12.343,-8.9492 -16.359,-11 -0.336,-0.1679 -0.609,-0.4101 -0.969,-0.5586 -0.07,-0.0312 -0.187,-0.1093 -0.261,-0.1601 h -0.504 c -1.418,-0.4922 -2.918,-0.8203 -4.496,-0.8907 -1.567,0.0704 -3.059,0.3985 -4.473,0.8907 h -0.496 c -0.074,0.039 -0.195,0.1289 -0.27,0.1601 -0.351,0.1485 -0.625,0.3907 -0.961,0.5508 -4.015,2.0469 -9.339,5.4766 -16.359,11.0078 0,0 -1.23,0.9727 -1.719,1.3711 -4.656,3.75 -9.765,8.0899 -15.945,13.8985 -18.031,16.7226 -40.004,39.9412 -65.449,66.8322 -0.66,0.699 -1.43,1.508 -2.102,2.211 -6.219,6.457 -12.23,12.699 -18.84,19.508 0.078,0.031 0.168,0.05 0.243,0.082 -2.239,2.347 -4.223,4.468 -6.532,6.878 C 621.391,292.609 527.543,409.211 452.117,526.469 L 905.43,73.1484 c -4.168,-3.75 -8.016,-7.0586 -11.442,-9.8164 -0.484,-0.4023 -1.715,-1.3828 -1.715,-1.3828 z M 1593.9,1669.28 c -0.36,12.97 -10.98,23.31 -23.97,23.31 h -0.07 -1400.391 c -12.989,0 -23.61,-10.34 -23.965,-23.32 -0.016,-0.67 -1.785,-67.92 0.5,-165.65 2.078,-89.88 8.176,-225.1 25.469,-358.73 6.402,-51.47 15.886,-102.55 28.437,-155.109 h -0.472 l 7.761,-29.929 c 0,-0.012 0.012,-0.043 0.016,-0.071 0,0 0.008,-0.011 0.008,-0.019 31.207,-120.313 78.32,-238.403 140.047,-351 86.003,-156.992 202.113,-310.5 354.898,-469.223 9.211,-9.66 17.922,-18.848 26.234,-27.629 4.172,-4.34 9.016,-9.308 12.953,-13.4217 21.247,-22.1602 39.594,-41.2969 55.555,-56.2969 4.801,-4.5625 9.074,-8.1406 13.375,-11.7695 h -1 c 0.309,-0.2539 0.633,-0.5625 0.938,-0.8125 22.59,-18.9688 40.621,-28.37893 57.703,-29.5195562 L 869.285,0 869.684,0.03125 870.113,0 871.469,0.0898438 C 888.555,1.21875 906.586,10.6406 929.176,29.6016 c 4.633,3.9492 9.164,7.6992 14.293,12.5781 4.609,4.332 9.871,9.7109 14.894,14.6992 h -0.996 c 12.367,12.3125 25.551,25.8516 40.672,41.6094 3.941,4.1137 8.781,9.0817 12.951,13.4217 8.32,8.789 17.03,17.981 26.24,27.641 152.78,158.711 268.89,312.219 354.89,469.219 58.65,106.968 103.63,218.968 134.78,333.058 h 1.45 c 1.65,5.992 3.73,11.91 5.3,17.91 l 7.84,30.043 h -0.5 c 12.53,52.169 22.28,104.219 28.71,155.169 12.94,106.18 20.98,226.86 23.9,358.74 0.74,35.96 0.96,67.7 0.95,93.6 0.05,44.46 -0.64,71.56 -0.65,71.99"
         style="fill:#181817;fill-opacity:1;fill-rule:nonzero;stroke:none"
         transform="matrix(0.13333333,0,0,-0.13333333,0,695.06667)" />
    </g>
  </g>
</svg>
